# xmcd CD database file generated by GCD 2.95
# 
# Track frame offsets:
#       150
#       12327
#       27617
#       42193
#       44940
#       57089
#       62075
#       79814
#       90724
#       105421
#       118971
#       138029
#       150560
#       163909
#       178318
#       188543
#       203639
#       221559
#       238242
#       266265
#       284179
#       297233
# 
# Disc length: 4008 seconds
# 
# Revision: 3
# Processed by: cddbd v1.4PL0 Copyright (c) Steve Scherf et al.
# Submitted via: GCD 2.95
# 
DISCID=4c0fa616
DTITLE=Big Bill Lister - Remembering...Hank Williams
DYEAR=1900
DGENRE=
TTITLE0=Long Gone Daddy
TTITLE1=Big Bill Meets Hank
TTITLE2=I Can't Help It
TTITLE3=Hank Writes Countryfied
TTITLE4=Countryfied
TTITLE5=Don Helms and Hank
TTITLE6=The Little House That We Built
TTITLE7=Story Behind Tear In My Beer
TTITLE8=There's A Tear In My Beer
TTITLE9=Hank Jr. and Sr. Make History
TTITLE10=Friends Find Bill In New York
TTITLE11=Long Gone Lonesome Blues
TTITLE12=Laughs On The Road
TTITLE13=Your Cheatin' Heart
TTITLE14=Louisiana, Moon Mulligan And A Million Seller
TTITLE15=Jambalaya
TTITLE16=A Hit Song Don't Care Who Sings It
TTITLE17=Cold Cold Heart
TTITLE18=The Hadacol Caravan
TTITLE19=The Beginning Of The End
TTITLE20=Old Hank
TTITLE21=The Dinosaur is Done
EXTD=
EXTT0=
EXTT1=
EXTT2=
EXTT3=
EXTT4=
EXTT5=
EXTT6=
EXTT7=
EXTT8=
EXTT9=
EXTT10=
EXTT11=
EXTT12=
EXTT13=
EXTT14=
EXTT15=
EXTT16=
EXTT17=
EXTT18=
EXTT19=
EXTT20=
EXTT21=
PLAYORDER=
